<?xml version="1.0" encoding="utf-8"?>
<!-- Generator: Adobe Illustrator 15.0.2, SVG Export Plug-In . SVG Version: 6.00 Build 0)  -->
<!DOCTYPE svg PUBLIC "-//W3C//DTD SVG 1.1//EN" "http://www.w3.org/Graphics/SVG/1.1/DTD/svg11.dtd">
<svg version="1.1" id="Layer_1" xmlns="http://www.w3.org/2000/svg" xmlns:xlink="http://www.w3.org/1999/xlink" x="0px" y="0px"
	 width="18px" height="18px" viewBox="0 0 18 18" enable-background="new 0 0 18 18" xml:space="preserve">
<g display="none">
	<g display="inline" opacity="0.15">
		<path fill="#FFFFFF" d="M7.983,14.306c-0.31,0-0.605-0.135-0.808-0.371l-3.193-3.726C3.6,9.762,3.651,9.09,4.097,8.708
			c0.447-0.382,1.118-0.331,1.501,0.116l2.309,2.693l7.193-10.071c0.342-0.478,1.007-0.589,1.484-0.247
			c0.479,0.341,0.59,1.007,0.248,1.485L8.85,13.86c-0.19,0.266-0.492,0.43-0.819,0.444C8.015,14.306,7.999,14.306,7.983,14.306
			L7.983,14.306z M12.773,18.031c1.174,0,2.129-0.955,2.129-2.129V10.58c0-0.294-0.238-0.532-0.532-0.532s-0.532,0.238-0.532,0.532
			v5.322c0,0.588-0.477,1.064-1.064,1.064H2.129c-0.587,0-1.064-0.477-1.064-1.064V5.258c0-0.587,0.478-1.064,1.064-1.064h5.322
			c0.294,0,0.532-0.238,0.532-0.532S7.746,3.129,7.451,3.129H2.129C0.955,3.129,0,4.084,0,5.258v10.645
			c0,1.174,0.955,2.129,2.129,2.129H12.773L12.773,18.031z"/>
	</g>
	<g display="inline">
		<g opacity="0.35">
			<path d="M7.983,13.306c-0.31,0-0.605-0.135-0.808-0.371L3.982,9.208C3.6,8.762,3.651,8.09,4.097,7.708
				c0.447-0.382,1.118-0.331,1.501,0.116l2.309,2.693l7.193-10.071c0.342-0.478,1.007-0.589,1.484-0.247
				c0.479,0.341,0.59,1.007,0.248,1.485L8.85,12.86c-0.19,0.266-0.492,0.43-0.819,0.444C8.015,13.306,7.999,13.306,7.983,13.306
				L7.983,13.306z M12.773,17.031c1.174,0,2.129-0.955,2.129-2.129V9.58c0-0.294-0.238-0.532-0.532-0.532s-0.532,0.238-0.532,0.532
				v5.322c0,0.588-0.477,1.064-1.064,1.064H2.129c-0.587,0-1.064-0.477-1.064-1.064V4.258c0-0.587,0.478-1.064,1.064-1.064h5.322
				c0.294,0,0.532-0.238,0.532-0.532S7.746,2.129,7.451,2.129H2.129C0.955,2.129,0,3.084,0,4.258v10.645
				c0,1.174,0.955,2.129,2.129,2.129H12.773L12.773,17.031z"/>
		</g>
	</g>
</g>
<path fill="#C6C6C6" d="M8.917,17.834c4.925,0,8.917-3.992,8.917-8.917S13.842,0,8.917,0C3.992,0,0,3.992,0,8.917
	S3.992,17.834,8.917,17.834z M7.41,8.119V4.47h3.014v3.649h3.279l-4.787,5.738L4.129,8.119H7.41z"/>
</svg>
